<svg width="17" height="17" viewBox="0 0 17 17" fill="none" xmlns="http://www.w3.org/2000/svg">
<g clip-path="url(#clip0_73_4473)">
<path d="M2.69537 5.28104C2.41969 5.28104 2.18579 5.37718 1.99352 5.56945C1.80124 5.76173 1.70508 5.99245 1.70508 6.26173V10.3963C1.70508 10.6723 1.80121 10.906 1.99352 11.0983C2.18579 11.2906 2.41969 11.3868 2.69537 11.3868C2.97085 11.3868 3.20334 11.2906 3.39263 11.0983C3.58154 10.9061 3.67626 10.6723 3.67626 10.3963V6.26173C3.67626 5.99242 3.58013 5.76173 3.38783 5.56945C3.19552 5.37718 2.96466 5.28104 2.69537 5.28104Z" fill="#00AFFF"/>
<path d="M10.6568 1.57002L11.3396 0.310612C11.3844 0.227234 11.3684 0.163298 11.2916 0.11834C11.2082 0.0795725 11.1441 0.0992164 11.0993 0.175882L10.4071 1.44536C9.79793 1.17604 9.15368 1.04114 8.4743 1.04114C7.79478 1.04114 7.15046 1.17607 6.54156 1.44536L5.84928 0.175882C5.8043 0.0992164 5.74021 0.0797461 5.65701 0.11834C5.58 0.1635 5.56406 0.227234 5.60904 0.310612L6.29178 1.57002C5.5995 1.92306 5.04814 2.41473 4.6379 3.04611C4.22767 3.67784 4.02246 4.36818 4.02246 5.11835H12.9165C12.9165 4.36836 12.7112 3.67799 12.301 3.04611C11.8908 2.41473 11.3426 1.92306 10.6568 1.57002ZM6.70976 3.40184C6.63593 3.47585 6.54775 3.51268 6.44525 3.51268C6.34255 3.51268 6.25616 3.47585 6.18569 3.40184C6.11521 3.32819 6.07997 3.24035 6.07997 3.13751C6.07997 3.03501 6.11521 2.947 6.18569 2.87317C6.25616 2.79951 6.34275 2.76268 6.44525 2.76268C6.54775 2.76268 6.63593 2.79951 6.70976 2.87317C6.78342 2.94717 6.82042 3.03501 6.82042 3.13751C6.82022 3.24018 6.78325 3.32819 6.70976 3.40184ZM10.7625 3.40184C10.6919 3.47585 10.6053 3.51268 10.503 3.51268C10.4003 3.51268 10.3121 3.47585 10.2384 3.40184C10.1646 3.32819 10.1278 3.24035 10.1278 3.13751C10.1278 3.03501 10.1646 2.947 10.2384 2.87317C10.3121 2.79951 10.4003 2.76268 10.503 2.76268C10.6055 2.76268 10.6919 2.79951 10.7625 2.87317C10.8331 2.94717 10.8682 3.03501 10.8682 3.13751C10.8682 3.24018 10.833 3.32819 10.7625 3.40184Z" fill="#00AFFF"/>
<path d="M4.06079 11.8672C4.06079 12.1624 4.16329 12.4122 4.36832 12.6173C4.57353 12.8223 4.82337 12.9248 5.11832 12.9248H5.8299L5.83965 15.1077C5.83965 15.3834 5.93578 15.6174 6.12805 15.8097C6.32033 16.002 6.55122 16.0982 6.82033 16.0982C7.09584 16.0982 7.32989 16.002 7.52219 15.8097C7.71449 15.6174 7.81063 15.3834 7.81063 15.1077V12.925H9.1375V15.1077C9.1375 15.3834 9.23361 15.6174 9.42591 15.8097C9.61821 16.002 9.85206 16.0982 10.1278 16.0982C10.4033 16.0982 10.6373 16.002 10.8296 15.8097C11.0219 15.6174 11.118 15.3834 11.118 15.1077V12.925H11.8392C12.1276 12.925 12.3743 12.8225 12.5797 12.6174C12.7847 12.4124 12.8872 12.1626 12.8872 11.8674V5.46333H4.06079V11.8672Z" fill="#00AFFF"/>
<path d="M14.2532 5.28104C13.9839 5.28104 13.7532 5.37576 13.5609 5.56468C13.3686 5.75394 13.2725 5.98643 13.2725 6.26173V10.3963C13.2725 10.6723 13.3686 10.906 13.5609 11.0983C13.7532 11.2906 13.984 11.3868 14.2532 11.3868C14.5287 11.3868 14.7627 11.2906 14.955 11.0983C15.1473 10.906 15.2434 10.6723 15.2434 10.3963V6.26173C15.2434 5.9864 15.1473 5.75394 14.955 5.56468C14.7627 5.37576 14.5287 5.28104 14.2532 5.28104Z" fill="#00AFFF"/>
</g>
<defs>
<clipPath id="clip0_73_4473">
<rect width="16" height="16" fill="white" transform="translate(0.474365 0.0982742)"/>
</clipPath>
</defs>
</svg>
