<svg width="10" height="12" viewBox="0 0 10 12" fill="none" xmlns="http://www.w3.org/2000/svg">
<path d="M7.30667 -0.00167274C7.3346 -0.00167274 7.36253 -0.00167274 7.39203 -0.00167274C7.46054 0.844592 7.13752 1.47692 6.74495 1.93483C6.35976 2.38958 5.83229 2.83063 4.97918 2.76371C4.92227 1.92956 5.24581 1.34413 5.63785 0.887275C6.00144 0.461507 6.66802 0.0826376 7.30667 -0.00167274Z" fill="#00AFFF"/>
<path d="M9.88912 8.80603C9.88912 8.81446 9.88912 8.82184 9.88912 8.82974C9.64936 9.55587 9.30738 10.1782 8.89004 10.7557C8.50907 11.28 8.0422 11.9856 7.20858 11.9856C6.48825 11.9856 6.00979 11.5224 5.27155 11.5098C4.49062 11.4971 4.06117 11.8971 3.34716 11.9977C3.26549 11.9977 3.18381 11.9977 3.10372 11.9977C2.57941 11.9218 2.15628 11.5066 1.84802 11.1325C0.939049 10.027 0.236638 8.59894 0.105957 6.77152C0.105957 6.59236 0.105957 6.41372 0.105957 6.23456C0.161286 4.9267 0.796775 3.86334 1.64146 3.34799C2.08725 3.07398 2.70008 2.84055 3.38247 2.94488C3.67492 2.9902 3.9737 3.09031 4.23558 3.18938C4.48377 3.28476 4.79414 3.4539 5.08817 3.44495C5.28736 3.43915 5.48549 3.33534 5.68625 3.2621C6.27431 3.04974 6.85079 2.80629 7.61063 2.92064C8.52382 3.0587 9.17196 3.46444 9.57243 4.09045C8.79994 4.58208 8.18921 5.32296 8.29355 6.58814C8.38629 7.7374 9.05445 8.40977 9.88912 8.80603Z" fill="#00AFFF"/>
</svg>
