<svg width="59" height="59" viewBox="0 0 59 59" fill="none" xmlns="http://www.w3.org/2000/svg">
<path d="M51.5146 28.2267C51.4371 28.1182 47.405 26.0246 47.343 25.9471C47.2965 25.885 44.8927 24.3342 43.8226 23.931C43.8226 23.931 42.4269 23.5743 42.1788 23.4813C41.574 23.2487 41.0622 23.0315 40.69 22.9075C40.2558 22.7679 39.9767 22.6283 39.9611 22.6128C39.7906 22.3647 39.7906 22.1476 39.6665 21.0775C39.5269 19.8989 39.2633 18.4722 39.1702 18.1155C39.1702 18.1 39.1702 18.0845 39.1702 18.0845C38.8911 17.6502 31.7574 13.7577 31.6954 13.7267C31.4317 13.6026 31.5093 13.8353 31.5248 13.8818C31.928 16.301 32.5018 19.046 32.5018 19.046L28.0355 19.201C28.0199 19.201 24.8098 23.8535 24.8098 23.8535L27.167 24.7064C27.167 24.7064 30.7183 28.3353 30.7183 28.3508L27.0895 29.6535C26.9809 29.7 26.3761 29.9016 26.3451 29.9016L16.4044 32.6155C16.3424 32.631 16.2959 32.569 16.3269 32.5225L23.0419 21.031L23.0574 21.0155L28.0199 17.3246C28.0199 17.3246 28.0355 17.3246 28.0355 17.3091L31.106 13.5406C31.106 13.4941 31.1526 13.2304 31.1526 13.2149C31.3387 11.6021 31.8814 8.05076 32.1916 5.75557C32.2847 4.93364 32.2071 4.76306 31.8814 4.01867L30.2996 0.0486081C30.2841 0.00208393 30.129 -0.0444401 30.098 0.0796243L29.0435 2.68498C29.0125 2.76252 28.9349 2.88658 28.9039 2.96412L22.7782 12.9203C22.7782 12.9358 22.7782 12.9358 22.7627 12.9513L23.1349 18.4722C23.2435 19.3561 22.9333 19.8059 22.8247 19.077L22.1424 15.7428C22.1269 15.5877 21.9408 15.7117 21.8788 15.7428C21.1809 16.1149 14.9932 19.2476 14.9311 19.3716C14.8691 19.5112 8.61937 27.0946 8.23167 27.8545C8.21616 27.8701 9.2552 29.5914 9.36376 29.9481L7.28568 33.9337C7.27017 34.0578 12.4344 45.022 13.0237 45.9835C13.0237 45.9835 17.3504 51.8455 24.1584 56.2808C25.1665 56.9321 31.6643 59.6616 30.4237 58.0177C29.121 56.2963 29.028 56.5754 28.5782 56.1567L18.3894 47.5498C18.436 47.5963 18.3119 47.5032 18.2964 47.3637C18.2809 47.3171 18.3119 47.2706 18.3739 47.1931L24.7322 42.0754C24.9804 41.9203 25.0889 41.5947 25.1199 41.4861L27.136 34.4455C27.136 34.3524 27.7718 37.6556 28.0044 37.3765C28.0044 37.3765 31.106 32.3829 32.4242 31.4059C32.5638 31.3128 33.6959 30.5219 33.944 30.5374C34.2077 30.5529 39.775 35.7171 39.775 35.7171C39.8526 35.7947 39.9767 35.7792 39.9922 35.7636L47.2964 34.0423C47.3275 34.0423 47.3275 34.0267 47.3275 34.0112L46.9553 28.3198C46.9553 28.0406 47.436 28.0717 47.467 28.2733C47.6686 30.0567 48.0563 33.4529 48.0563 33.4529C48.0719 33.608 48.0874 33.577 48.1339 33.4995C49.0489 32.3054 51.6387 28.5369 51.6387 28.4438C51.6542 28.3353 51.5302 28.2422 51.5146 28.2267ZM39.0307 23.1866L34.7815 22.923C34.7349 22.923 34.6884 22.8765 34.6884 22.8144L34.6729 20.3331C34.6729 20.2866 34.7194 20.2556 34.7659 20.2866L39.0617 23.0626C39.1237 23.1091 39.0927 23.1866 39.0307 23.1866Z" fill="#222222"/>
<path d="M46.6761 43.8899C36.6269 48.8525 29.1831 39.9509 29.1831 39.9509L28.3766 48.2166L21.8943 47.0535L31.1216 58.0022C31.3077 58.2038 34.6109 56.6685 38.8291 53.2723C44.3964 48.7594 47.9788 43.2386 46.6761 43.8899Z" fill="#222222"/>
</svg>
