<svg width="13" height="13" viewBox="0 0 13 13" fill="none" xmlns="http://www.w3.org/2000/svg">
<g clip-path="url(#clip0_562_32098)">
<path d="M0.696683 3.65885C0.389683 3.65885 0.146683 3.89885 0.146683 4.19885C0.14667 4.27061 0.160962 4.34166 0.188723 4.40784C0.216484 4.47401 0.257156 4.53399 0.308364 4.58427C0.359572 4.63455 0.420287 4.67411 0.486961 4.70065C0.553636 4.72719 0.624932 4.74018 0.696683 4.73885C1.00668 4.73885 1.25168 4.49885 1.25168 4.19885C1.25168 3.89885 1.00668 3.65885 0.696683 3.65885ZM4.50168 3.66885C2.82168 3.66885 1.77168 4.81385 1.77168 6.63385C1.77168 8.46885 2.82168 9.60885 4.50168 9.60885C6.17168 9.60885 7.22668 8.46885 7.22668 6.63385C7.22668 4.81385 6.17168 3.66885 4.50168 3.66885ZM9.92168 3.66885C8.67168 3.66885 7.78168 4.35885 7.78168 5.38385C7.78168 6.19885 8.28668 6.70885 9.34668 6.95385L10.0917 7.13385C10.8167 7.29885 11.1117 7.53885 11.1117 7.95385C11.1117 8.43385 10.6267 8.77385 9.93668 8.77385C9.23168 8.77385 8.70168 8.42885 8.64668 7.89885H7.64668C7.68668 8.95885 8.55668 9.60885 9.87668 9.60885C11.2717 9.60885 12.1467 8.92385 12.1467 7.83385C12.1467 6.97885 11.6467 6.49385 10.4867 6.22885L9.82168 6.07885C9.11668 5.90885 8.82668 5.68385 8.82668 5.30385C8.82668 4.82385 9.26668 4.50385 9.91668 4.50385C10.5717 4.50385 11.0217 4.82885 11.0717 5.36385H12.0517C12.0267 4.35385 11.1917 3.66885 9.92168 3.66885ZM4.50168 4.54385C5.52168 4.54385 6.17668 5.35885 6.17668 6.63385C6.17668 7.91885 5.52168 8.73385 4.50168 8.73385C3.47168 8.73385 2.82168 7.91885 2.82168 6.63385C2.82168 5.35885 3.47168 4.54385 4.50168 4.54385ZM0.202183 5.28885V9.51385H1.19668V5.28885H0.202183Z" fill="#00AFFF"/>
</g>
<defs>
<clipPath id="clip0_562_32098">
<rect width="12" height="12" fill="white" transform="translate(0.146683 0.63385)"/>
</clipPath>
</defs>
</svg>
