<svg width="14" height="16" viewBox="0 0 14 16" fill="none" xmlns="http://www.w3.org/2000/svg">
<path d="M6.81456 3.85469C6.81456 3.90681 6.76245 3.90681 6.76245 3.90681H6.71033C6.65821 3.90681 6.65821 3.85469 6.60609 3.80258C6.60609 3.80258 6.55398 3.75046 6.55398 3.69834C6.55398 3.64622 6.55398 3.64622 6.60609 3.64622L6.71033 3.69834C6.76245 3.75046 6.81456 3.80258 6.81456 3.85469ZM5.82434 3.33352C5.82434 3.07294 5.7201 2.91658 5.56375 2.91658C5.56375 2.91658 5.56375 2.9687 5.51163 2.9687V3.07294H5.66798C5.66798 3.17717 5.7201 3.22929 5.7201 3.33352H5.82434ZM7.70056 3.07294C7.80479 3.07294 7.85691 3.17717 7.90903 3.33352H8.01326C7.96114 3.2814 7.96114 3.22929 7.96114 3.17717C7.96114 3.12505 7.96114 3.07294 7.90903 3.02082C7.85691 2.9687 7.80479 2.91658 7.75267 2.91658C7.75267 2.91658 7.70056 2.9687 7.64844 2.9687C7.64844 3.02082 7.70056 3.02082 7.70056 3.07294ZM6.08492 3.90681C6.0328 3.90681 6.0328 3.90681 6.0328 3.85469C6.0328 3.80258 6.0328 3.75046 6.08492 3.69834C6.18916 3.69834 6.24127 3.64622 6.24127 3.64622C6.29339 3.64622 6.29339 3.69834 6.29339 3.69834C6.29339 3.75046 6.24127 3.80258 6.13704 3.90681H6.08492ZM5.51163 3.85469C5.30316 3.75046 5.25105 3.59411 5.25105 3.33352C5.25105 3.17717 5.25105 3.07294 5.35528 2.9687C5.4074 2.86447 5.51163 2.81235 5.61587 2.81235C5.7201 2.81235 5.77222 2.86447 5.87645 2.9687C5.92857 3.12505 5.98069 3.2814 5.98069 3.43776V3.54199H6.0328V3.48987C6.08492 3.48987 6.08492 3.38564 6.08492 3.17717C6.08492 3.02082 6.08492 2.86447 5.98069 2.70811C5.87645 2.55176 5.77222 2.44753 5.56375 2.44753C5.4074 2.44753 5.25105 2.55176 5.19893 2.70811C5.09469 2.91658 5.09469 3.07294 5.09469 3.33352C5.09469 3.54199 5.14681 3.75046 5.4074 3.95893C5.4074 3.90681 5.45952 3.90681 5.51163 3.85469ZM12.1826 11.4117C12.2348 11.4117 12.2348 11.4117 12.2348 11.3596C12.2348 11.2553 12.1826 11.099 12.0263 10.9426C11.8699 10.7863 11.6094 10.6821 11.2966 10.6299H11.0882C11.0361 10.6299 10.9318 10.6299 10.8797 10.5778C11.0361 10.0566 11.0882 9.63971 11.0882 9.27489C11.0882 8.75372 10.9839 8.3889 10.7755 8.02408C10.567 7.71137 10.3585 7.55502 10.098 7.5029C10.0458 7.55502 10.0458 7.55502 10.0458 7.60714C10.3064 7.71137 10.567 7.91984 10.7234 8.23254C10.8797 8.59736 10.9318 8.91007 10.9318 9.32701C10.9318 9.63971 10.8797 10.0566 10.6712 10.6299C10.4628 10.7342 10.2543 10.8905 10.098 11.2032C10.098 11.2553 10.098 11.2553 10.1501 11.2553C10.1501 11.2553 10.2022 11.2032 10.2543 11.099L10.5149 10.8384C10.6712 10.7342 10.7755 10.6821 10.9318 10.6821C11.1924 10.6821 11.453 10.7342 11.6094 10.7863C11.8178 10.8384 11.9221 10.9426 11.9742 10.9948C12.0263 11.099 12.0784 11.1511 12.1305 11.2032C12.1305 11.3596 12.1826 11.4117 12.1826 11.4117ZM7.28362 3.64622C7.2315 3.59411 7.2315 3.48987 7.2315 3.38564C7.2315 3.17717 7.2315 3.07294 7.33574 2.91658C7.43997 2.81235 7.54421 2.76023 7.64844 2.76023C7.80479 2.76023 7.90903 2.86447 8.01326 2.9687C8.06538 3.12505 8.1175 3.22929 8.1175 3.38564C8.1175 3.64622 8.01326 3.80258 7.80479 3.85469C7.80479 3.85469 7.85691 3.90681 7.90903 3.90681C8.01326 3.90681 8.06538 3.95893 8.16961 4.01105C8.22173 3.69834 8.27385 3.48987 8.27385 3.22929C8.27385 2.91658 8.22173 2.70811 8.1175 2.55176C7.96114 2.39541 7.80479 2.34329 7.59632 2.34329C7.43997 2.34329 7.28362 2.39541 7.12727 2.49965C7.02303 2.656 6.97092 2.76023 6.97092 2.91658C6.97092 3.17717 7.02303 3.38564 7.12727 3.59411C7.17939 3.59411 7.2315 3.64622 7.28362 3.64622ZM7.90903 4.53222C7.2315 5.00127 6.65821 5.20974 6.24127 5.20974C5.87645 5.20974 5.51163 5.05339 5.14681 4.7928C5.19893 4.89704 5.25105 5.00127 5.30316 5.05339L5.61587 5.36609C5.82434 5.57456 6.08492 5.6788 6.34551 5.6788C6.71033 5.6788 7.12727 5.47033 7.70056 5.10551L8.16961 4.7928C8.27385 4.68857 8.37808 4.58434 8.37808 4.42798C8.37808 4.37587 8.37808 4.32375 8.32596 4.32375C8.32596 4.1674 8.06538 4.01105 7.54421 3.85469C7.07515 3.64622 6.71033 3.54199 6.44974 3.54199C6.29339 3.54199 6.0328 3.64622 5.66798 3.85469C5.35528 4.06316 5.14681 4.27163 5.14681 4.4801C5.14681 4.4801 5.19893 4.53222 5.25105 4.63645C5.56375 4.89704 5.87645 5.05339 6.18916 5.05339C6.60609 5.05339 7.12727 4.84492 7.85691 4.32375V4.42798C7.90903 4.4801 7.90903 4.53222 7.90903 4.53222ZM9.15984 15.3205C9.36831 15.7374 9.73313 15.9459 10.1501 15.9459C10.2543 15.9459 10.3585 15.9459 10.4628 15.8938C10.567 15.8938 10.6712 15.8417 10.7234 15.7895C10.7755 15.7374 10.8276 15.7374 10.8797 15.6853C10.9839 15.6332 10.9839 15.6332 11.0361 15.5811L11.9221 14.7993C12.1305 14.643 12.339 14.4866 12.5996 14.3303L13.1208 14.0697C13.2771 14.0176 13.3813 13.9654 13.4856 13.8612C13.5377 13.757 13.5898 13.7049 13.5898 13.5485C13.5898 13.3922 13.4856 13.2879 13.3813 13.1837C13.2771 13.0794 13.1729 13.0273 13.0686 13.0273C12.9644 12.9752 12.8602 12.9231 12.7038 12.7667C12.5996 12.6104 12.4953 12.454 12.4432 12.1935L12.3911 11.8808C12.339 11.7244 12.339 11.6202 12.2869 11.568H12.2348C12.1826 11.568 12.0784 11.6202 12.0263 11.7244L11.7136 12.0371C11.6615 12.1413 11.5051 12.2456 11.4009 12.3498C11.2445 12.454 11.0882 12.5062 10.9839 12.5062C10.567 12.5062 10.3585 12.4019 10.2022 12.1413C10.098 11.985 10.0458 11.7765 9.99372 11.568C9.88948 11.4638 9.83737 11.4117 9.73313 11.4117C9.47255 11.4117 9.36831 11.6723 9.36831 12.2456V13.8612C9.36831 13.9133 9.31619 14.0176 9.31619 14.1739C9.26408 14.3303 9.26408 14.5387 9.26408 14.7472L9.15984 15.3205ZM1.39437 15.0078C1.91554 15.0599 2.48883 15.2163 3.11424 15.4768C3.73965 15.7374 4.15658 15.8417 4.31294 15.8417C4.67776 15.8417 4.99046 15.6853 5.25105 15.3726C5.30316 15.2684 5.30316 15.1641 5.30316 15.0078C5.30316 14.4866 4.99046 13.8612 4.36505 13.0794L4.00023 12.6104C3.94811 12.5062 3.84388 12.3498 3.73965 12.1413C3.63541 11.9329 3.53118 11.7765 3.42694 11.6723C3.37483 11.568 3.27059 11.4117 3.11424 11.3075C2.95789 11.2032 2.80154 11.099 2.64518 11.0469C2.43671 11.099 2.28036 11.1511 2.17613 11.2553C2.07189 11.3596 2.07189 11.4638 2.07189 11.568C2.07189 11.6723 2.01978 11.7765 1.96766 11.7765C1.91554 11.8286 1.81131 11.8286 1.70707 11.8808H1.39437C1.13378 11.8808 0.925314 11.9329 0.821079 11.985C0.664727 12.1413 0.61261 12.2977 0.61261 12.5062C0.61261 12.6104 0.61261 12.7146 0.664727 12.9231C0.716845 13.1316 0.716845 13.2879 0.716845 13.3922C0.716845 13.6006 0.664727 13.8091 0.508376 14.0697C0.352024 14.2781 0.299906 14.4866 0.299906 14.5909C0.404141 14.7993 0.768962 14.9557 1.39437 15.0078ZM3.16636 10.1609C3.16636 9.79606 3.27059 9.37912 3.47906 8.91007C3.68753 8.44101 3.84388 8.12831 4.05235 7.91984C4.05235 7.86772 4.00023 7.86772 3.94811 7.86772L3.896 7.76349C3.73965 7.91984 3.53118 8.28466 3.32271 8.85795C3.11424 9.32701 2.95789 9.79606 2.95789 10.1088C2.95789 10.3694 3.01 10.5778 3.11424 10.7342C3.21847 10.8905 3.53118 11.1511 3.94811 11.5159L4.5214 11.8808C5.14681 12.4019 5.45952 12.7667 5.45952 12.9752C5.45952 13.0794 5.4074 13.1837 5.25105 13.34C5.14681 13.4443 4.99046 13.5485 4.88622 13.5485V13.6006L5.04258 13.9133C5.25105 14.226 5.77222 14.3824 6.39763 14.3824C7.59632 14.3824 8.48232 13.9133 9.15984 12.9231C9.15984 12.6625 9.15984 12.5062 9.10772 12.4019V12.1935C9.10772 11.8286 9.15984 11.568 9.26408 11.4117C9.36831 11.2553 9.47254 11.1511 9.6289 11.1511C9.73313 11.1511 9.83737 11.2032 9.9416 11.2553C9.99372 10.8384 9.99372 10.4736 9.99372 10.1609C9.99372 9.69183 9.99372 9.27489 9.88948 8.91007C9.83737 8.59736 9.73313 8.33678 9.6289 8.12831L9.31619 7.65925C9.21196 7.5029 9.15984 7.34655 9.05561 7.1902C9.00349 6.98173 8.95137 6.82538 8.95137 6.56479C8.79502 6.30421 8.69079 6.04362 8.53443 5.78303C8.4302 5.52245 8.32596 5.26186 8.22173 5.05339L7.75267 5.41821C7.2315 5.78303 6.81456 5.93938 6.39763 5.93938C6.08492 5.93938 5.82434 5.88727 5.66798 5.6788L5.35528 5.41821C5.35528 5.57456 5.30316 5.78303 5.19893 5.9915L4.88622 6.61691C4.72987 6.98173 4.67776 7.1902 4.62564 7.34655C4.62564 7.45079 4.57352 7.55502 4.57352 7.55502L4.15658 8.33678C3.73965 9.11854 3.47906 9.9003 3.47906 10.4736C3.47906 10.5778 3.47906 10.7342 3.53118 10.8384C3.27059 10.6821 3.16636 10.4736 3.16636 10.1609ZM7.02303 15.2163C6.34551 15.2163 5.77222 15.3205 5.4074 15.4768C5.14681 15.7895 4.83411 15.9459 4.41717 15.9459C4.15658 15.9459 3.73965 15.8417 3.16636 15.6332C2.59307 15.4247 2.12401 15.2684 1.65496 15.2163C1.60284 15.2163 1.4986 15.1641 1.34225 15.1641C1.1859 15.1641 1.02955 15.112 0.925314 15.112C0.821079 15.112 0.664727 15.0599 0.560493 15.0078C0.404141 14.9557 0.299906 14.9036 0.247789 14.8514C0.195672 14.7993 0.143555 14.6951 0.143555 14.643C0.143555 14.5387 0.143555 14.4866 0.195672 14.3824C0.247789 14.2781 0.299907 14.226 0.352024 14.1739C0.404141 14.1218 0.404141 14.0697 0.456258 14.0176C0.508376 13.9654 0.508376 13.9133 0.508376 13.8612C0.508376 13.8091 0.560493 13.757 0.560493 13.7049V13.5485C0.560493 13.5485 0.560493 13.34 0.508376 13.0273C0.456258 12.7667 0.456258 12.5583 0.456258 12.5062C0.456258 12.2456 0.508376 12.0892 0.61261 11.9329C0.716845 11.7765 0.821079 11.7244 0.977431 11.7244H1.60284C1.65496 11.7244 1.70707 11.6723 1.86342 11.6202C1.91554 11.5159 1.91554 11.4638 1.96766 11.4117C2.01978 11.3596 2.01978 11.3075 2.01978 11.2553C2.01978 11.2032 2.01978 11.2032 2.07189 11.1511C2.07189 11.099 2.12401 11.0469 2.17613 11.0469C2.12401 10.9948 2.12401 10.9426 2.12401 10.8384V10.6821C2.12401 10.4736 2.22825 10.213 2.3846 9.84818L2.59307 9.53548L2.95789 8.80583C3.06212 8.59736 3.16636 8.28466 3.27059 7.86772C3.37483 7.5029 3.58329 7.13808 3.896 6.72114L4.31294 6.25209C4.57352 5.93938 4.78199 5.6788 4.88622 5.47033C4.99046 5.26186 5.04258 5.00127 5.04258 4.7928C5.04258 4.68857 4.99046 4.37587 4.93834 3.85469C4.88623 3.33352 4.83411 2.76023 4.83411 2.29118C4.83411 1.92636 4.88623 1.66577 4.93834 1.40518C4.99046 1.1446 5.14681 0.88401 5.30316 0.675541C5.45952 0.467072 5.66798 0.258603 5.98069 0.154368C6.29339 0.0501336 6.65821 -0.00198364 7.12727 -0.00198364C7.28362 -0.00198364 7.43997 -0.00198363 7.59632 0.0501336C7.75268 0.0501336 7.96114 0.102251 8.22173 0.206485C8.4302 0.31072 8.63867 0.414954 8.79502 0.571306C8.89925 0.675541 9.10772 0.936127 9.26408 1.19671C9.36831 1.50942 9.47254 1.82212 9.52466 2.29118C9.57678 2.55176 9.57678 2.81235 9.6289 3.17717C9.6289 3.48987 9.68101 3.69834 9.68101 3.85469C9.73313 4.01105 9.73313 4.21951 9.78525 4.4801C9.83737 4.68857 9.88948 4.89704 9.99372 5.05339C10.098 5.26186 10.2022 5.47033 10.3585 5.6788C10.5149 5.93938 10.7234 6.19997 10.9318 6.51267C11.4009 7.03385 11.7657 7.65925 12.0263 8.23254C12.2869 8.75372 12.4432 9.48336 12.4432 10.213C12.4432 10.5778 12.3911 10.9426 12.2869 11.3075C12.3911 11.3075 12.4432 11.3596 12.4953 11.4117C12.5475 11.4638 12.5996 11.6723 12.6517 11.8808L12.7038 12.2977C12.7559 12.4019 12.808 12.5062 12.9644 12.6104C13.0686 12.7146 13.1729 12.7667 13.3292 12.871C13.4335 12.9231 13.5898 12.9752 13.694 13.0794C13.7983 13.1837 13.8504 13.2879 13.8504 13.3922C13.8504 13.5485 13.7983 13.7049 13.694 13.8091C13.5898 13.9133 13.4856 13.9654 13.3292 14.0176L12.7038 14.3303C12.4432 14.4866 12.1826 14.6951 11.9221 14.9036L11.4009 15.3726C11.1924 15.5811 10.9839 15.7374 10.8276 15.8417C10.6712 15.9459 10.4628 15.998 10.2543 15.998L9.88948 15.9459C9.47254 15.8417 9.21196 15.6332 9.05561 15.2684C8.1175 15.2684 7.43997 15.2163 7.02303 15.2163Z" fill="#00AFFF"/>
</svg>
