<svg width="16" height="16" viewBox="0 0 16 16" fill="none" xmlns="http://www.w3.org/2000/svg">
<path d="M10.6667 4.66673C10.6667 6.14006 9.47333 7.3334 8 7.3334C6.52667 7.3334 5.33333 6.14006 5.33333 4.66673C5.33333 3.19339 6.52667 2.00006 8 2.00006C9.47333 2.00006 10.6667 3.19339 10.6667 4.66673ZM4.66667 8.66673C3.19333 8.66673 2 9.86006 2 11.3334C2 12.8067 3.19333 14.0001 4.66667 14.0001C6.14 14.0001 7.33333 12.8067 7.33333 11.3334C7.33333 9.86006 6.14 8.66673 4.66667 8.66673ZM11.3333 8.66673C9.86 8.66673 8.66667 9.86006 8.66667 11.3334C8.66667 12.8067 9.86 14.0001 11.3333 14.0001C12.8067 14.0001 14 12.8067 14 11.3334C14 9.86006 12.8067 8.66673 11.3333 8.66673Z" fill="white"/>
</svg>
